<svg xmlns="http://www.w3.org/2000/svg" width="282.3863220214844" height="411.7061767578125" viewBox="-46.46112823486328 -102.65141296386719 282.3863220214844 411.7061767578125"><title>Neo4j Graph Visualization</title><desc>Created using Neo4j (http://www.neo4j.com/)</desc><g class="layer relationships"><g class="relationship" transform="translate(-17.461129753745112 -44.80151925056071) rotate(407.33721643355716)"><path class="outline" fill="#A5ABB6" stroke="none" d="M 21.40063509461097,12.933012701892217 L 21.90063509461097,12.06698729810778 A 64.21322289315567 64.21322289315567 0 0 0 42.56570380091388,19.642376601936277 L 42.38752332305012,20.626374425769356 A 65.21322289315567 65.21322289315567 0 0 1 21.40063509461097,12.933012701892217 Z M 61.79187059841602,21.203628248770656 L 61.67249873314291,20.210778633883677 A 64.21322289315567 64.21322289315567 0 0 0 82.75134048148115,13.87721579064202 L 81.40843511190705,11.194566881751955 L 89.23467216382032,11.190878079784142 L 84.54188097424661,17.454081002495442 L 83.19897560467251,14.771432093605375 A 65.21322289315567 65.21322289315567 0 0 1 61.79187059841602,21.203628248770656"/><text text-anchor="middle" pointer-events="none" font-size="8px" fill="#000000" x="52.08296452177569" y="24.14131180648411" font-family="sans-serif">trek</text></g><g class="relationship" transform="translate(-17.461129753745112 -44.80151925056071) rotate(407.33721643355716)"><path class="outline" fill="#A5ABB6" stroke="none" d="M 25 0.5 L 41.28918049395211 0.5 L 41.28918049395211 -0.5 L 25 -0.5 Z M 63.30089924395211 0.5 L 79.59007973790422 0.5 L 79.59007973790422 3.5 L 86.59007973790422 0 L 79.59007973790422 -3.5 L 79.59007973790422 -0.5 L 63.30089924395211 -0.5 Z"/><text text-anchor="middle" pointer-events="none" font-size="8px" fill="#000000" x="52.29503986895211" y="3" font-family="sans-serif">road</text></g><g class="relationship" transform="translate(-17.461129753745112 -44.80151925056071) rotate(407.33721643355716)"><path class="outline" fill="#A5ABB6" stroke="none" d="M 21.40063509461097,-12.933012701892217 L 21.90063509461097,-12.06698729810778 A 64.21322289315567 64.21322289315567 0 0 1 22.845258586189377,-12.601771591499855 L 22.359969317858308,-13.4761252533797 A 65.21322289315567 65.21322289315567 0 0 0 21.40063509461097,-12.933012701892217 Z M 82.20905267448187,-15.256556807219887 L 81.7765973397793,-14.35490144984253 A 64.21322289315567 64.21322289315567 0 0 1 82.75134048148115,-13.87721579064202 L 81.40843511190705,-11.194566881751955 L 89.23467216382032,-11.190878079784142 L 84.54188097424661,-17.454081002495442 L 83.19897560467251,-14.771432093605375 A 65.21322289315567 65.21322289315567 0 0 0 82.20905267448187,-15.256556807219887"/><text text-anchor="middle" pointer-events="none" font-size="8px" fill="#000000" x="52.08296452177569" y="-18.14131180648411" font-family="sans-serif">PublicTransport</text></g><g class="relationship" transform="translate(58.16147691678218 37.256796941441074) rotate(372.21010717314755)"><path class="outline" fill="#A5ABB6" stroke="none" d="M 25 0.5 L 49.82396488132599 0.5 L 49.82396488132599 -0.5 L 25 -0.5 Z M 69.15990238132599 0.5 L 93.98386726265198 0.5 L 93.98386726265198 3.5 L 100.98386726265198 0 L 93.98386726265198 -3.5 L 93.98386726265198 -0.5 L 69.15990238132599 -0.5 Z"/><text text-anchor="middle" pointer-events="none" font-size="8px" fill="#000000" x="59.49193363132599" y="3" font-family="sans-serif">trek</text></g><g class="relationship" transform="translate(181.29541280712508 63.90203371288747) rotate(437.75169181246986)"><path class="outline" fill="#A5ABB6" stroke="none" d="M 25 0.5 L 47.23722131885315 0.5 L 47.23722131885315 -0.5 L 25 -0.5 Z M 66.57315881885316 0.5 L 88.8103801377063 0.5 L 88.8103801377063 3.5 L 95.8103801377063 0 L 88.8103801377063 -3.5 L 88.8103801377063 -0.5 L 66.57315881885316 -0.5 Z"/><text text-anchor="middle" pointer-events="none" font-size="8px" fill="#000000" x="56.90519006885315" y="3" font-family="sans-serif">trek</text></g><g class="relationship" transform="translate(93.63871816703876 190.72437561477685) rotate(355.5773731698338)"><path class="outline" fill="#A5ABB6" stroke="none" d="M 24.018736134675446,6.953439040707552 L 24.277555179777966,5.987513214418485 A 118.92119086432683 118.92119086432683 0 0 0 30.314005430975097,7.437217316741098 L 30.105946475031825,8.415333603719176 A 119.92119086432683 119.92119086432683 0 0 1 24.018736134675446,6.953439040707552 Z M 76.4663228817924,9.113026347275934 L 76.28779147724458,8.129092133219842 A 118.92119086432683 118.92119086432683 0 0 0 82.36513232730198,6.861692507335343 L 81.67622630759891,3.9418622903506524 L 89.29288717021677,5.74088349752562 L 83.28367368690607,10.754799463314932 L 82.594767667203,7.834969246330241 A 119.92119086432683 119.92119086432683 0 0 1 76.4663228817924,9.113026347275934"/><text text-anchor="middle" pointer-events="none" font-size="8px" fill="#000000" x="53.25961845416525" y="13.526133426100614" font-family="sans-serif">twowheeler</text></g><g class="relationship" transform="translate(93.63871816703876 190.72437561477685) rotate(355.5773731698338)"><path class="outline" fill="#A5ABB6" stroke="none" d="M 24.018736134675446,-6.953439040707552 L 24.277555179777966,-5.987513214418485 A 118.92119086432683 118.92119086432683 0 0 1 43.65711477926093,-9.492028368974957 L 43.56125709923246,-10.487423418781603 A 119.92119086432683 119.92119086432683 0 0 0 24.018736134675446,-6.953439040707552 Z M 62.954752642792585,-10.779282591671517 L 62.88889165238605,-9.781453783737675 A 118.92119086432683 118.92119086432683 0 0 1 82.36513232730198,-6.861692507335343 L 81.67622630759891,-3.9418622903506524 L 89.29288717021677,-5.74088349752562 L 83.28367368690607,-10.754799463314932 L 82.594767667203,-7.834969246330241 A 119.92119086432683 119.92119086432683 0 0 0 62.954752642792585,-10.779282591671517"/><text text-anchor="middle" pointer-events="none" font-size="8px" fill="#000000" x="53.259618454165235" y="-7.526133426100614" font-family="sans-serif">trek</text></g><g class="relationship" transform="translate(199.35830760021256 -48.843151477257) rotate(459.1020027046339)"><path class="outline" fill="#A5ABB6" stroke="none" d="M 21.40063509461097,12.933012701892217 L 21.90063509461097,12.06698729810778 A 66.8872826478187 66.8872826478187 0 0 0 42.55300300605246,19.793714713368914 L 42.36176675147447,20.775258749535894 A 67.8872826478187 67.8872826478187 0 0 1 21.40063509461097,12.933012701892217 Z M 64.42900964341878,21.417574614342982 L 64.29518880289365,20.426569073167187 A 66.8872826478187 66.8872826478187 0 0 0 85.36201792279087,13.91417107148334 L 84.01567492681407,11.233245757867872 L 91.84190082055643,11.219524966473372 L 87.15714191742661,17.488738156303967 L 85.81079892144982,14.807812842688497 A 67.8872826478187 67.8872826478187 0 0 1 64.42900964341878,21.417574614342982"/><text text-anchor="middle" pointer-events="none" font-size="8px" fill="#000000" x="53.38365103025" y="24.49965585690373" transform="rotate(180 53.38365103025 21.49965585690373)" font-family="sans-serif">road</text></g><g class="relationship" transform="translate(199.35830760021256 -48.843151477257) rotate(459.1020027046339)"><path class="outline" fill="#A5ABB6" stroke="none" d="M 25 0.5 L 43.923503800342665 0.5 L 43.923503800342665 -0.5 L 25 -0.5 Z M 63.259441300342665 0.5 L 82.18294510068533 0.5 L 82.18294510068533 3.5 L 89.18294510068533 0 L 82.18294510068533 -3.5 L 82.18294510068533 -0.5 L 63.259441300342665 -0.5 Z"/><text text-anchor="middle" pointer-events="none" font-size="8px" fill="#000000" x="53.591472550342665" y="3" transform="rotate(180 53.591472550342665 0)" font-family="sans-serif">trek</text></g><g class="relationship" transform="translate(199.35830760021256 -48.843151477257) rotate(459.1020027046339)"><path class="outline" fill="#A5ABB6" stroke="none" d="M 21.40063509461097,-12.933012701892217 L 21.90063509461097,-12.06698729810778 A 66.8872826478187 66.8872826478187 0 0 1 30.916349756865298,-16.407947025480105 L 30.551139425474275,-17.33887205675022 A 67.8872826478187 67.8872826478187 0 0 0 21.40063509461097,-12.933012701892217 Z M 76.4195191961655,-18.673972602114077 L 76.10907455976758,-17.723381140059125 A 66.8872826478187 66.8872826478187 0 0 1 85.36201792279087,-13.91417107148334 L 84.01567492681407,-11.233245757867872 L 91.84190082055643,-11.219524966473372 L 87.15714191742661,-17.488738156303967 L 85.81079892144982,-14.807812842688497 A 67.8872826478187 67.8872826478187 0 0 0 76.4195191961655,-18.673972602114077"/><text text-anchor="middle" pointer-events="none" font-size="8px" fill="#000000" x="53.38365103024999" y="-18.49965585690373" transform="rotate(180 53.38365103024999 -21.49965585690373)" font-family="sans-serif">twowheeler</text></g><g class="relationship" transform="translate(-17.461129753745112 -44.80151925056071) rotate(344.6044504515561)"><path class="outline" fill="#A5ABB6" stroke="none" d="M 24.018736134675446,-6.953439040707552 L 24.277555179777966,-5.987513214418485 A 109.04028614545938 109.04028614545938 0 0 1 39.86082709706097,-8.96805886736216 L 39.74492102906211,-9.961319046469853 A 110.04028614545938 110.04028614545938 0 0 0 24.018736134675446,-6.953439040707552 Z M 61.817209982607935,-10.307750018966217 L 61.73253233961599,-9.311341620377917 A 109.04028614545938 109.04028614545938 0 0 1 77.40166652861953,-6.821311539382351 L 76.71653235964601,-3.9005939613709195 L 84.33086323880846,-5.709451408112702 L 78.31517875391756,-10.715601643397592 L 77.63004458494405,-7.794884065386161 A 110.04028614545938 110.04028614545938 0 0 0 61.817209982607935,-10.307750018966217"/><text text-anchor="middle" pointer-events="none" font-size="8px" fill="#000000" x="50.78020310251636" y="-7.189481164963027" font-family="sans-serif">road</text></g><g class="relationship" transform="translate(-17.461129753745112 -44.80151925056071) rotate(344.6044504515561)"><path class="outline" fill="#A5ABB6" stroke="none" d="M 24.018736134675446,6.953439040707552 L 24.277555179777966,5.987513214418485 A 109.04028614545938 109.04028614545938 0 0 0 41.1845446588568,9.114338772293635 L 41.080778301863745,10.108940473054489 A 110.04028614545938 110.04028614545938 0 0 1 24.018736134675446,6.953439040707552 Z M 60.47737792264444,10.413375725958801 L 60.4048761118581,9.41600744521557 A 109.04028614545938 109.04028614545938 0 0 0 77.40166652861953,6.821311539382351 L 76.71653235964601,3.9005939613709195 L 84.33086323880846,5.709451408112702 L 78.31517875391756,10.715601643397592 L 77.63004458494405,7.794884065386161 A 110.04028614545938 110.04028614545938 0 0 1 60.47737792264444,10.413375725958801"/><text text-anchor="middle" pointer-events="none" font-size="8px" fill="#000000" x="50.780203102516396" y="13.189481164963027" font-family="sans-serif">trek</text></g><g class="relationship" transform="translate(58.16147691678218 37.256796941441074) rotate(480.95403784522927)"><path class="outline" fill="#A5ABB6" stroke="none" d="M 24.018736134675446,-6.953439040707552 L 24.277555179777966,-5.987513214418485 A 138.60446215809944 138.60446215809944 0 0 1 48.604036780093274,-10.228524313866785 L 48.52072782479267,-11.225048080751804 A 139.60446215809944 139.60446215809944 0 0 0 24.018736134675446,-6.953439040707552 Z M 67.90867350129386,-11.494637848837016 L 67.85310476331168,-10.496182984880164 A 138.60446215809944 138.60446215809944 0 0 1 92.28810103903459,-6.93320119969934 L 91.59251582880033,-4.014954942903424 L 99.2132731732641,-5.796543418618746 L 93.21554798601359,-10.824196208760561 L 92.51996277577933,-7.9059499519646455 A 139.60446215809944 139.60446215809944 0 0 0 67.90867350129386,-11.494637848837016"/><text text-anchor="middle" pointer-events="none" font-size="8px" fill="#000000" x="58.21696639110344" y="-8.196899790576992" transform="rotate(180 58.21696639110344 -11.196899790576992)" font-family="sans-serif">trek</text></g><g class="relationship" transform="translate(-5.37723990041772 143.19538532048716) rotate(439.86825253139097)"><path class="outline" fill="#A5ABB6" stroke="none" d="M 24.018736134675446,-6.953439040707552 L 24.277555179777966,-5.987513214418485 A 127.016590675133 127.016590675133 0 0 1 45.688539731407076,-9.797154598615364 L 45.59828909487089,-10.793073682981557 A 128.016590675133 128.016590675133 0 0 0 24.018736134675446,-6.953439040707552 Z M 64.9893974253014,-11.07535573951398 L 64.92817466117783,-10.077231612386981 A 127.016590675133 127.016590675133 0 0 1 86.44097916282823,-6.892444426395414 L 85.74920076325097,-3.973293411823143 L 93.36762793009308,-5.764819996477181 L 87.36335036226458,-10.784645779158444 L 86.67157196268732,-7.865494764586172 A 128.016590675133 128.016590675133 0 0 0 64.9893974253014,-11.07535573951398"/><text text-anchor="middle" pointer-events="none" font-size="8px" fill="#000000" x="55.29576810261085" y="-7.801989410164268" font-family="sans-serif">trek</text></g><g class="relationship" transform="translate(15.326551785841664 259.0539365896308) rotate(369.81041412552327)"><path class="outline" fill="#A5ABB6" stroke="none" d="M 25 0.5 L 48.45828807607544 0.5 L 48.45828807607544 -0.5 L 25 -0.5 Z M 67.79422557607543 0.5 L 91.25251365215088 0.5 L 91.25251365215088 3.5 L 98.25251365215088 0 L 91.25251365215088 -3.5 L 91.25251365215088 -0.5 L 67.79422557607543 -0.5 Z"/><text text-anchor="middle" pointer-events="none" font-size="8px" fill="#000000" x="58.12625682607544" y="3" font-family="sans-serif">trek</text></g><g class="relationship" transform="translate(136.776737126706 280.0547604364074) rotate(305.5695814073927)"><path class="outline" fill="#A5ABB6" stroke="none" d="M 25 0.5 L 47.12901851629425 0.5 L 47.12901851629425 -0.5 L 25 -0.5 Z M 66.46495601629425 0.5 L 88.5939745325885 0.5 L 88.5939745325885 3.5 L 95.5939745325885 0 L 88.5939745325885 -3.5 L 88.5939745325885 -0.5 L 66.46495601629425 -0.5 Z"/><text text-anchor="middle" pointer-events="none" font-size="8px" fill="#000000" x="56.79698726629425" y="3" font-family="sans-serif">trek</text></g><g class="relationship" transform="translate(-5.37723990041772 143.19538532048716) rotate(439.86825253139097)"><path class="outline" fill="#A5ABB6" stroke="none" d="M 24.018736134675446,6.953439040707552 L 24.277555179777966,5.987513214418485 A 127.016590675133 127.016590675133 0 0 0 32.322569718852385,7.865035970819591 L 32.12708897071023,8.845743509847281 A 128.016590675133 128.016590675133 0 0 1 24.018736134675446,6.953439040707552 Z M 78.51157296776512,9.520976060290849 L 78.34472189819184,8.53499395062444 A 127.016590675133 127.016590675133 0 0 0 86.44097916282823,6.892444426395414 L 85.74920076325097,3.973293411823143 L 93.36762793009308,5.764819996477181 L 87.36335036226458,10.784645779158444 L 86.67157196268732,7.865494764586172 A 128.016590675133 128.016590675133 0 0 1 78.51157296776512,9.520976060290849"/><text text-anchor="middle" pointer-events="none" font-size="8px" fill="#000000" x="55.29576810261086" y="13.801989410164268" font-family="sans-serif">twowheeler</text></g><g class="relationship" transform="translate(58.16147691678218 37.256796941441074) rotate(480.95403784522927)"><path class="outline" fill="#A5ABB6" stroke="none" d="M 24.018736134675446,6.953439040707552 L 24.277555179777966,5.987513214418485 A 138.60446215809944 138.60446215809944 0 0 0 35.21151375728953,8.448164156279375 L 35.031580762515176,9.431843025317193 A 139.60446215809944 139.60446215809944 0 0 1 24.018736134675446,6.953439040707552 Z M 81.44246479344812,10.077187285678576 L 81.28995222514031,9.088885754511011 A 138.60446215809944 138.60446215809944 0 0 0 92.28810103903459,6.93320119969934 L 91.59251582880033,4.014954942903424 L 99.2132731732641,5.796543418618746 L 93.21554798601359,10.824196208760561 L 92.51996277577933,7.9059499519646455 A 139.60446215809944 139.60446215809944 0 0 1 81.44246479344812,10.077187285678576"/><text text-anchor="middle" pointer-events="none" font-size="8px" fill="#000000" x="58.21696639110349" y="14.196899790576992" transform="rotate(180 58.21696639110349 11.196899790576992)" font-family="sans-serif">twowheeler</text></g><g class="relationship" transform="translate(15.326551785841664 259.0539365896308) rotate(318.8943900482335)"><path class="outline" fill="#A5ABB6" stroke="none" d="M 21.40063509461097,12.933012701892217 L 21.90063509461097,12.06698729810778 A 56.291001173504824 56.291001173504824 0 0 0 38.7499322534742,18.46347126191607 L 38.54925713325257,19.443129108372695 A 57.291001173504824 57.291001173504824 0 0 1 21.40063509461097,12.933012701892217 Z M 57.95153102590391,20.060510544804522 L 57.81354434068961,19.070076460827416 A 56.291001173504824 56.291001173504824 0 0 0 75.03541684928572,13.757739014411408 L 73.70362594237514,11.069555058602159 L 81.52981123065908,11.098257557588243 L 76.81113805849984,17.341984288823742 L 75.47934715158925,14.653800333014493 A 57.291001173504824 57.291001173504824 0 0 1 57.95153102590391,20.060510544804522"/><text text-anchor="middle" pointer-events="none" font-size="8px" fill="#000000" x="48.23995702042019" y="23.07982236840231" font-family="sans-serif">trek</text></g><g class="relationship" transform="translate(15.326551785841664 259.0539365896308) rotate(318.8943900482335)"><path class="outline" fill="#A5ABB6" stroke="none" d="M 25 0.5 L 25.23325022286808 0.5 L 25.23325022286808 -0.5 L 25 -0.5 Z M 71.69809397286808 0.5 L 71.93134419573616 0.5 L 71.93134419573616 3.5 L 78.93134419573616 0 L 71.93134419573616 -3.5 L 71.93134419573616 -0.5 L 71.69809397286808 -0.5 Z"/><text text-anchor="middle" pointer-events="none" font-size="8px" fill="#000000" x="48.46567209786808" y="3" font-family="sans-serif">twowheeler</text></g><g class="relationship" transform="translate(15.326551785841664 259.0539365896308) rotate(318.8943900482335)"><path class="outline" fill="#A5ABB6" stroke="none" d="M 21.40063509461097,-12.933012701892217 L 21.90063509461097,-12.06698729810778 A 56.291001173504824 56.291001173504824 0 0 1 37.45405130281641,-18.18207637685976 L 37.230355079334174,-19.156735291352312 A 57.291001173504824 57.291001173504824 0 0 0 21.40063509461097,-12.933012701892217 Z M 59.285972661458835,-19.858546271837476 L 59.12469363349923,-18.871637423391782 A 56.291001173504824 56.291001173504824 0 0 1 75.03541684928572,-13.757739014411408 L 73.70362594237514,-11.069555058602159 L 81.52981123065908,-11.098257557588243 L 76.81113805849984,-17.341984288823742 L 75.47934715158925,-14.653800333014493 A 57.291001173504824 57.291001173504824 0 0 0 59.285972661458835,-19.858546271837476"/><text text-anchor="middle" pointer-events="none" font-size="8px" fill="#000000" x="48.23995702042018" y="-17.07982236840231" font-family="sans-serif">road</text></g><g class="relationship" transform="translate(58.16147691678218 37.256796941441074) rotate(284.7250478517142)"><path class="outline" fill="#A5ABB6" stroke="none" d="M 25 0.5 L 44.1692783601543 0.5 L 44.1692783601543 -0.5 L 25 -0.5 Z M 63.5052158601543 0.5 L 82.6744942203086 0.5 L 82.6744942203086 3.5 L 89.6744942203086 0 L 82.6744942203086 -3.5 L 82.6744942203086 -0.5 L 63.5052158601543 -0.5 Z"/><text text-anchor="middle" pointer-events="none" font-size="8px" fill="#000000" x="53.8372471101543" y="3" font-family="sans-serif">trek</text></g><g class="relationship" transform="translate(87.30952911248777 -73.65141140167486) rotate(372.48422886937954)"><path class="outline" fill="#A5ABB6" stroke="none" d="M 21.40063509461097,-12.933012701892217 L 21.90063509461097,-12.06698729810778 A 67.48424696619496 67.48424696619496 0 0 1 42.84157097800538,-19.882900759848184 L 42.651879484431845,-20.86474450366174 A 68.48424696619496 68.48424696619496 0 0 0 21.40063509461097,-12.933012701892217 Z M 64.71950289835516,-21.50399163949632 L 64.58696520212953,-20.512813674104024 A 67.48424696619496 67.48424696619496 0 0 1 85.94522404247162,-13.922208373921135 L 84.59813341790219,-11.241658645004112 L 92.42435518070626,-11.225755204745292 L 87.74134487523087,-17.496274679143834 L 86.39425425066143,-14.81572495022681 A 68.48424696619496 68.48424696619496 0 0 0 64.71950289835516,-21.50399163949632"/><text text-anchor="middle" pointer-events="none" font-size="8px" fill="#000000" x="53.67424061995143" y="-18.57965634788532" font-family="sans-serif">road</text></g><g class="relationship" transform="translate(87.30952911248777 -73.65141140167486) rotate(372.48422886937954)"><path class="outline" fill="#A5ABB6" stroke="none" d="M 25 0.5 L 44.213166044174066 0.5 L 44.213166044174066 -0.5 L 25 -0.5 Z M 63.549103544174066 0.5 L 82.76226958834813 0.5 L 82.76226958834813 3.5 L 89.76226958834813 0 L 82.76226958834813 -3.5 L 82.76226958834813 -0.5 L 63.549103544174066 -0.5 Z"/><text text-anchor="middle" pointer-events="none" font-size="8px" fill="#000000" x="53.881134794174066" y="3" font-family="sans-serif">trek</text></g><g class="relationship" transform="translate(87.30952911248777 -73.65141140167486) rotate(372.48422886937954)"><path class="outline" fill="#A5ABB6" stroke="none" d="M 21.40063509461097,12.933012701892217 L 21.90063509461097,12.06698729810778 A 67.48424696619496 67.48424696619496 0 0 0 31.195881815435612,16.52442226334253 L 30.833621319671035,17.456499155668695 A 68.48424696619496 68.48424696619496 0 0 1 21.40063509461097,12.933012701892217 Z M 76.7152358568742,18.785581591517584 L 76.4075376895925,17.83409757281234 A 67.48424696619496 67.48424696619496 0 0 0 85.94522404247162,13.922208373921135 L 84.59813341790219,11.241658645004112 L 92.42435518070626,11.225755204745292 L 87.74134487523087,17.496274679143834 L 86.39425425066143,14.81572495022681 A 68.48424696619496 68.48424696619496 0 0 1 76.7152358568742,18.785581591517584"/><text text-anchor="middle" pointer-events="none" font-size="8px" fill="#000000" x="53.67424061995143" y="24.57965634788532" font-family="sans-serif">twowheeler</text></g><g class="relationship" transform="translate(-5.37723990041772 143.19538532048716) rotate(385.6416315128848)"><path class="outline" fill="#A5ABB6" stroke="none" d="M 24.018736134675446,-6.953439040707552 L 24.277555179777966,-5.987513214418485 A 111.36066727112741 111.36066727112741 0 0 1 41.764453280338344,-9.203622433717115 L 41.66266362926761,-10.198428378077566 A 112.36066727112741 112.36066727112741 0 0 0 24.018736134675446,-6.953439040707552 Z M 61.058516784125054,-10.499817276566276 L 60.98768505775189,-9.502328997668215 A 111.36066727112741 111.36066727112741 0 0 1 78.56606562121303,-6.831093243195869 L 77.8800177687606,-3.9105901454153846 L 85.49491415810957,-5.717065437103605 L 79.4807960911496,-10.725097373569849 L 78.79474823869717,-7.804594275789364 A 112.36066727112741 112.36066727112741 0 0 0 61.058516784125054,-10.499817276566276"/><text text-anchor="middle" pointer-events="none" font-size="8px" fill="#000000" x="51.361842467497475" y="-7.26853370565108" font-family="sans-serif">trek</text></g><g class="relationship" transform="translate(-5.37723990041772 143.19538532048716) rotate(385.6416315128848)"><path class="outline" fill="#A5ABB6" stroke="none" d="M 24.018736134675446,6.953439040707552 L 24.277555179777966,5.987513214418485 A 111.36066727112741 111.36066727112741 0 0 0 28.44690740151646,7.018938968668579 L 28.22552843578763,7.994126824177883 A 112.36066727112741 112.36066727112741 0 0 1 24.018736134675446,6.953439040707552 Z M 74.55765261429893,8.714073905614 L 74.36667977308528,7.732478584761878 A 111.36066727112741 111.36066727112741 0 0 0 78.56606562121303,6.831093243195869 L 77.8800177687606,3.9105901454153846 L 85.49491415810957,5.717065437103605 L 79.4807960911496,10.725097373569849 L 78.79474823869717,7.804594275789364 A 112.36066727112741 112.36066727112741 0 0 1 74.55765261429893,8.714073905614"/><text text-anchor="middle" pointer-events="none" font-size="8px" fill="#000000" x="51.361842467497496" y="13.26853370565108" font-family="sans-serif">twowheeler</text></g></g><g class="layer nodes"><g class="node" transform="translate(-17.461129753745112,-44.80151925056071)"><circle class="outline" cx="0" cy="0" r="25" fill="#F16667" stroke="#eb2728" stroke-width="2px"/><text text-anchor="middle" pointer-events="none" font-family="sans-serif" dy="1.5625" font-size="25" fill="#FFFFFF"/><text text-anchor="middle" pointer-events="none" x="0" y="5" font-size="10px" fill="#FFFFFF" font-family="sans-serif"> Darjeeling</text></g><g class="node" transform="translate(206.9251919958842,181.96245200688028)"><circle class="outline" cx="0" cy="0" r="25" fill="#8DCC93" stroke="#5db665" stroke-width="2px"/><text text-anchor="middle" pointer-events="none" font-family="sans-serif" dy="1.5625" font-size="25" fill="#2A2C34"/><text text-anchor="middle" pointer-events="none" x="0" y="5" font-size="10px" fill="#2A2C34" font-family="sans-serif"> Sandak…</text></g><g class="node" transform="translate(93.63871816703876,190.72437561477685)"><circle class="outline" cx="0" cy="0" r="25" fill="#D9C8AE" stroke="#c0a378" stroke-width="2px"/><text text-anchor="middle" pointer-events="none" font-family="sans-serif" dy="1.5625" font-size="25" fill="#2A2C34"/><text text-anchor="middle" pointer-events="none" x="0" y="5" font-size="10px" fill="#2A2C34" font-family="sans-serif"> Gurdum</text></g><g class="node" transform="translate(58.16147691678218,37.256796941441074)"><circle class="outline" cx="0" cy="0" r="25" fill="#F16667" stroke="#eb2728" stroke-width="2px"/><text text-anchor="middle" pointer-events="none" font-family="sans-serif" dy="1.5625" font-size="25" fill="#FFFFFF"/><text text-anchor="middle" pointer-events="none" x="0" y="5" font-size="10px" fill="#FFFFFF" font-family="sans-serif"> Rimbik</text></g><g class="node" transform="translate(181.29541280712508,63.90203371288747)"><circle class="outline" cx="0" cy="0" r="25" fill="#D9C8AE" stroke="#c0a378" stroke-width="2px"/><text text-anchor="middle" pointer-events="none" font-family="sans-serif" dy="1.5625" font-size="25" fill="#2A2C34"/><text text-anchor="middle" pointer-events="none" x="0" y="5" font-size="10px" fill="#2A2C34" font-family="sans-serif"> BhikeBh…</text></g><g class="node" transform="translate(199.35830760021256,-48.843151477257)"><circle class="outline" cx="0" cy="0" r="25" fill="#D9C8AE" stroke="#c0a378" stroke-width="2px"/><text text-anchor="middle" pointer-events="none" font-family="sans-serif" dy="1.5625" font-size="25" fill="#2A2C34"/><text text-anchor="middle" pointer-events="none" x="0" y="5" font-size="10px" fill="#2A2C34" font-family="sans-serif"> Gairibus</text></g><g class="node" transform="translate(87.30952911248777,-73.65141140167486)"><circle class="outline" cx="0" cy="0" r="25" fill="#D9C8AE" stroke="#c0a378" stroke-width="2px"/><text text-anchor="middle" pointer-events="none" font-family="sans-serif" dy="1.5625" font-size="25" fill="#2A2C34"/><text text-anchor="middle" pointer-events="none" x="0" y="5" font-size="10px" fill="#2A2C34" font-family="sans-serif"> Tumbling</text></g><g class="node" transform="translate(-5.37723990041772,143.19538532048716)"><circle class="outline" cx="0" cy="0" r="25" fill="#D9C8AE" stroke="#c0a378" stroke-width="2px"/><text text-anchor="middle" pointer-events="none" font-family="sans-serif" dy="1.5625" font-size="25" fill="#2A2C34"/><text text-anchor="middle" pointer-events="none" x="0" y="5" font-size="10px" fill="#2A2C34" font-family="sans-serif"> Sirikhola</text></g><g class="node" transform="translate(15.326551785841664,259.0539365896308)"><circle class="outline" cx="0" cy="0" r="25" fill="#D9C8AE" stroke="#c0a378" stroke-width="2px"/><text text-anchor="middle" pointer-events="none" font-family="sans-serif" dy="1.5625" font-size="25" fill="#2A2C34"/><text text-anchor="middle" pointer-events="none" x="0" y="5" font-size="10px" fill="#2A2C34" font-family="sans-serif"> Rammam</text></g><g class="node" transform="translate(136.776737126706,280.0547604364074)"><circle class="outline" cx="0" cy="0" r="25" fill="#8DCC93" stroke="#5db665" stroke-width="2px"/><text text-anchor="middle" pointer-events="none" font-family="sans-serif" dy="1.5625" font-size="25" fill="#2A2C34"/><text text-anchor="middle" pointer-events="none" x="0" y="5" font-size="10px" fill="#2A2C34" font-family="sans-serif"> Sabargr…</text></g></g></svg>