<svg xmlns="http://www.w3.org/2000/svg" width="238.46517944335938" height="228.9927978515625" viewBox="-25.43552589416504 -15.235197067260742 238.46517944335938 228.9927978515625"><title>Neo4j Graph Visualization</title><desc>Created using Neo4j (http://www.neo4j.com/)</desc><g class="layer relationships"><g class="relationship" transform="translate(167.12842227583448 184.757607526844) rotate(279.1971850300263)"><path class="outline" fill="#A5ABB6" stroke="none" d="M 21.40063509461097,12.933012701892217 L 21.90063509461097,12.06698729810778 A 58.168649285979114 58.168649285979114 0 0 0 39.65199593079726,18.74543105087141 L 39.45716651760106,19.726268193190982 A 59.168649285979114 59.168649285979114 0 0 1 21.40063509461097,12.933012701892217 Z M 58.86024951971206,20.333669956278705 L 58.72715049046013,19.342567212658146 A 58.168649285979114 58.168649285979114 0 0 0 76.8614738827507,13.78750307269185 L 75.52691405734038,11.100692682582274 L 83.3531247639081,11.12133187841936 L 78.6408869832978,17.369916926171285 L 77.30632715788748,14.68310653606171 A 59.168649285979114 59.168649285979114 0 0 1 58.86024951971206,20.333669956278705"/><text text-anchor="middle" pointer-events="none" font-size="8px" fill="#000000" x="49.149272435294165" y="23.33138309471269" font-family="sans-serif">trek</text></g><g class="relationship" transform="translate(167.12842227583448 184.757607526844) rotate(279.1971850300263)"><path class="outline" fill="#A5ABB6" stroke="none" d="M 25 0.5 L 38.36574629907729 0.5 L 38.36574629907729 -0.5 L 25 -0.5 Z M 60.37746504907729 0.5 L 73.74321134815457 0.5 L 73.74321134815457 3.5 L 80.74321134815457 0 L 73.74321134815457 -3.5 L 73.74321134815457 -0.5 L 60.37746504907729 -0.5 Z"/><text text-anchor="middle" pointer-events="none" font-size="8px" fill="#000000" x="49.37160567407729" y="3" font-family="sans-serif">road</text></g><g class="relationship" transform="translate(167.12842227583448 184.757607526844) rotate(279.1971850300263)"><path class="outline" fill="#A5ABB6" stroke="none" d="M 21.40063509461097,-12.933012701892217 L 21.90063509461097,-12.06698729810778 A 58.168649285979114 58.168649285979114 0 0 1 22.685633407556665,-12.512123308883965 L 22.199128620572296,-13.385801219925149 A 59.168649285979114 59.168649285979114 0 0 0 21.40063509461097,-12.933012701892217 Z M 76.48107630405843,-15.085064719607026 L 76.05017046331112,-14.182667824438475 A 58.168649285979114 58.168649285979114 0 0 1 76.8614738827507,-13.78750307269185 L 75.52691405734038,-11.100692682582274 L 83.3531247639081,-11.12133187841936 L 78.6408869832978,-17.369916926171285 L 77.30632715788748,-14.68310653606171 A 59.168649285979114 59.168649285979114 0 0 0 76.48107630405843,-15.085064719607026"/><text text-anchor="middle" pointer-events="none" font-size="8px" fill="#000000" x="49.149272435294165" y="-17.33138309471269" font-family="sans-serif">PublicTrans…</text></g><g class="relationship" transform="translate(184.02964408975714 80.37381832843892) rotate(219.23493795855046)"><path class="outline" fill="#A5ABB6" stroke="none" d="M 25 0.5 L 39.487235112076206 0.5 L 39.487235112076206 -0.5 L 25 -0.5 Z M 58.823172612076206 0.5 L 73.31040772415241 0.5 L 73.31040772415241 3.5 L 80.31040772415241 0 L 73.31040772415241 -3.5 L 73.31040772415241 -0.5 L 58.823172612076206 -0.5 Z"/><text text-anchor="middle" pointer-events="none" font-size="8px" fill="#000000" x="49.155203862076206" y="3" transform="rotate(180 49.155203862076206 0)" font-family="sans-serif">trek</text></g><g class="relationship" transform="translate(102.4605258590595 13.764802976958991) rotate(519.2887840866291)"><path class="outline" fill="#A5ABB6" stroke="none" d="M 25 0.5 L 39.69642868180605 0.5 L 39.69642868180605 -0.5 L 25 -0.5 Z M 59.03236618180605 0.5 L 73.7287948636121 0.5 L 73.7287948636121 3.5 L 80.7287948636121 0 L 73.7287948636121 -3.5 L 73.7287948636121 -0.5 L 59.03236618180605 -0.5 Z"/><text text-anchor="middle" pointer-events="none" font-size="8px" fill="#000000" x="49.36439743180605" y="3" transform="rotate(180 49.36439743180605 0)" font-family="sans-serif">trek</text></g></g><g class="layer nodes"><g class="node" transform="translate(167.12842227583448,184.757607526844)"><circle class="outline" cx="0" cy="0" r="25" fill="#F16667" stroke="#eb2728" stroke-width="2px"/><text text-anchor="middle" pointer-events="none" font-family="sans-serif" dy="1.5625" font-size="25" fill="#FFFFFF"/><text text-anchor="middle" pointer-events="none" x="0" y="5" font-size="10px" fill="#FFFFFF" font-family="sans-serif"> Darjeeling</text></g><g class="node" transform="translate(184.02964408975714,80.37381832843892)"><circle class="outline" cx="0" cy="0" r="25" fill="#F16667" stroke="#eb2728" stroke-width="2px"/><text text-anchor="middle" pointer-events="none" font-family="sans-serif" dy="1.5625" font-size="25" fill="#FFFFFF"/><text text-anchor="middle" pointer-events="none" x="0" y="5" font-size="10px" fill="#FFFFFF" font-family="sans-serif"> Rimbik</text></g><g class="node" transform="translate(102.4605258590595,13.764802976958991)"><circle class="outline" cx="0" cy="0" r="25" fill="#D9C8AE" stroke="#c0a378" stroke-width="2px"/><text text-anchor="middle" pointer-events="none" font-family="sans-serif" dy="1.5625" font-size="25" fill="#2A2C34"/><text text-anchor="middle" pointer-events="none" x="0" y="5" font-size="10px" fill="#2A2C34" font-family="sans-serif"> BhikeBh…</text></g><g class="node" transform="translate(3.5644735453950958,51.156632299482396)"><circle class="outline" cx="0" cy="0" r="25" fill="#8DCC93" stroke="#5db665" stroke-width="2px"/><text text-anchor="middle" pointer-events="none" font-family="sans-serif" dy="1.5625" font-size="25" fill="#2A2C34"/><text text-anchor="middle" pointer-events="none" x="0" y="5" font-size="10px" fill="#2A2C34" font-family="sans-serif"> Sandak…</text></g></g></svg>