<svg xmlns="http://www.w3.org/2000/svg" width="251.11558532714844" height="255.49569702148438" viewBox="-28.954879760742188 -20.759437561035156 251.11558532714844 255.49569702148438"><title>Neo4j Graph Visualization</title><desc>Created using Neo4j (http://www.neo4j.com/)</desc><g class="layer relationships"><g class="relationship" transform="translate(83.80017328305811 114.36487915899306) rotate(414.72636416184395)"><path class="outline" fill="#A5ABB6" stroke="none" d="M 25 0.5 L 29.678456737471947 0.5 L 29.678456737471947 -0.5 L 25 -0.5 Z M 75.24095673747195 0.5 L 79.9194134749439 0.5 L 79.9194134749439 3.5 L 86.9194134749439 0 L 79.9194134749439 -3.5 L 79.9194134749439 -0.5 L 75.24095673747195 -0.5 Z"/><text text-anchor="middle" pointer-events="none" font-size="8px" fill="#000000" x="52.45970673747195" y="3" font-family="sans-serif">ACTED_IN</text></g><g class="relationship" transform="translate(83.80017328305811 114.36487915899306) rotate(347.99160213880236)"><path class="outline" fill="#A5ABB6" stroke="none" d="M 25 0.5 L 29.622344338208855 0.5 L 29.622344338208855 -0.5 L 25 -0.5 Z M 75.18484433820885 0.5 L 79.80718867641771 0.5 L 79.80718867641771 3.5 L 86.80718867641771 0 L 79.80718867641771 -3.5 L 79.80718867641771 -0.5 L 75.18484433820885 -0.5 Z"/><text text-anchor="middle" pointer-events="none" font-size="8px" fill="#000000" x="52.403594338208855" y="3" font-family="sans-serif">ACTED_IN</text></g><g class="relationship" transform="translate(83.80017328305811 114.36487915899306) rotate(288.3226815484457)"><path class="outline" fill="#A5ABB6" stroke="none" d="M 25 0.5 L 29.61477441798675 0.5 L 29.61477441798675 -0.5 L 25 -0.5 Z M 75.17727441798675 0.5 L 79.7920488359735 0.5 L 79.7920488359735 3.5 L 86.7920488359735 0 L 79.7920488359735 -3.5 L 79.7920488359735 -0.5 L 75.17727441798675 -0.5 Z"/><text text-anchor="middle" pointer-events="none" font-size="8px" fill="#000000" x="52.39602441798675" y="3" font-family="sans-serif">ACTED_IN</text></g><g class="relationship" transform="translate(83.80017328305811 114.36487915899306) rotate(221.53428108577504)"><path class="outline" fill="#A5ABB6" stroke="none" d="M 25 0.5 L 29.662930366742827 0.5 L 29.662930366742827 -0.5 L 25 -0.5 Z M 75.22543036674283 0.5 L 79.88836073348565 0.5 L 79.88836073348565 3.5 L 86.88836073348565 0 L 79.88836073348565 -3.5 L 79.88836073348565 -0.5 L 75.22543036674283 -0.5 Z"/><text text-anchor="middle" pointer-events="none" font-size="8px" fill="#000000" x="52.44418036674283" y="3" transform="rotate(180 52.44418036674283 0)" font-family="sans-serif">ACTED_IN</text></g><g class="relationship" transform="translate(83.80017328305811 114.36487915899306) rotate(498.0845506264811)"><path class="outline" fill="#A5ABB6" stroke="none" d="M 25 0.5 L 28.47490173556161 0.5 L 28.47490173556161 -0.5 L 25 -0.5 Z M 74.03740173556162 0.5 L 77.51230347112322 0.5 L 77.51230347112322 3.5 L 84.51230347112322 0 L 77.51230347112322 -3.5 L 77.51230347112322 -0.5 L 74.03740173556162 -0.5 Z"/><text text-anchor="middle" pointer-events="none" font-size="8px" fill="#000000" x="51.25615173556161" y="3" transform="rotate(180 51.25615173556161 0)" font-family="sans-serif">ACTED_IN</text></g></g><g class="layer nodes"><g class="node" transform="translate(148.43162275799236,205.73626883510818)"><circle class="outline" cx="0" cy="0" r="25" fill="#57C7E3" stroke="#23b3d7" stroke-width="2px"/><text text-anchor="middle" pointer-events="none" font-family="sans-serif" dy="1.5625" font-size="25" fill="#2A2C34"/><text text-anchor="middle" pointer-events="none" font-family="sans-serif" dy="1.5625" font-size="25" fill="#2A2C34"/><text text-anchor="middle" pointer-events="none" x="0" y="0" font-size="10px" fill="#2A2C34" font-family="sans-serif"> Cloud</text><text text-anchor="middle" pointer-events="none" x="0" y="10" font-size="10px" fill="#2A2C34" font-family="sans-serif"> Atlas</text></g><g class="node" transform="translate(83.80017328305811,114.36487915899306)"><circle class="outline" cx="0" cy="0" r="25" fill="#F79767" stroke="#f36924" stroke-width="2px"/><text text-anchor="middle" pointer-events="none" font-family="sans-serif" dy="1.5625" font-size="25" fill="#FFFFFF"/><text text-anchor="middle" pointer-events="none" font-family="sans-serif" dy="1.5625" font-size="25" fill="#FFFFFF"/><text text-anchor="middle" pointer-events="none" x="0" y="0" font-size="10px" fill="#FFFFFF" font-family="sans-serif"> Hugo</text><text text-anchor="middle" pointer-events="none" x="0" y="10" font-size="10px" fill="#FFFFFF" font-family="sans-serif"> Weaving</text></g><g class="node" transform="translate(193.16069827995761,91.10282825786686)"><circle class="outline" cx="0" cy="0" r="25" fill="#57C7E3" stroke="#23b3d7" stroke-width="2px"/><text text-anchor="middle" pointer-events="none" font-family="sans-serif" dy="1.5625" font-size="25" fill="#2A2C34"/><text text-anchor="middle" pointer-events="none" font-family="sans-serif" dy="1.5625" font-size="25" fill="#2A2C34"/><text text-anchor="middle" pointer-events="none" x="0" y="0" font-size="10px" fill="#2A2C34" font-family="sans-serif"> V for</text><text text-anchor="middle" pointer-events="none" x="0" y="10" font-size="10px" fill="#2A2C34" font-family="sans-serif"> Vendetta</text></g><g class="node" transform="translate(118.94404719593112,8.240563805061237)"><circle class="outline" cx="0" cy="0" r="25" fill="#57C7E3" stroke="#23b3d7" stroke-width="2px"/><text text-anchor="middle" pointer-events="none" font-family="sans-serif" dy="1.5625" font-size="25" fill="#2A2C34"/><text text-anchor="middle" pointer-events="none" font-family="sans-serif" dy="1.5625" font-size="25" fill="#2A2C34"/><text text-anchor="middle" pointer-events="none" font-family="sans-serif" dy="1.5625" font-size="25" fill="#2A2C34"/><text text-anchor="middle" pointer-events="none" x="0" y="-5" font-size="10px" fill="#2A2C34" font-family="sans-serif"> The</text><text text-anchor="middle" pointer-events="none" x="0" y="5" font-size="10px" fill="#2A2C34" font-family="sans-serif"> Matrix</text><text text-anchor="middle" pointer-events="none" x="0" y="15" font-size="10px" fill="#2A2C34" font-family="sans-serif"> Revol…</text></g><g class="node" transform="translate(0.045119385301319065,40.17528275754019)"><circle class="outline" cx="0" cy="0" r="25" fill="#57C7E3" stroke="#23b3d7" stroke-width="2px"/><text text-anchor="middle" pointer-events="none" font-family="sans-serif" dy="1.5625" font-size="25" fill="#2A2C34"/><text text-anchor="middle" pointer-events="none" font-family="sans-serif" dy="1.5625" font-size="25" fill="#2A2C34"/><text text-anchor="middle" pointer-events="none" font-family="sans-serif" dy="1.5625" font-size="25" fill="#2A2C34"/><text text-anchor="middle" pointer-events="none" x="0" y="-5" font-size="10px" fill="#2A2C34" font-family="sans-serif"> The</text><text text-anchor="middle" pointer-events="none" x="0" y="5" font-size="10px" fill="#2A2C34" font-family="sans-serif"> Matrix</text><text text-anchor="middle" pointer-events="none" x="0" y="15" font-size="10px" fill="#2A2C34" font-family="sans-serif"> Reloa…</text></g><g class="node" transform="translate(2.3086248553028175,187.52273688048598)"><circle class="outline" cx="0" cy="0" r="25" fill="#57C7E3" stroke="#23b3d7" stroke-width="2px"/><text text-anchor="middle" pointer-events="none" font-family="sans-serif" dy="1.5625" font-size="25" fill="#2A2C34"/><text text-anchor="middle" pointer-events="none" font-family="sans-serif" dy="1.5625" font-size="25" fill="#2A2C34"/><text text-anchor="middle" pointer-events="none" x="0" y="0" font-size="10px" fill="#2A2C34" font-family="sans-serif"> The</text><text text-anchor="middle" pointer-events="none" x="0" y="10" font-size="10px" fill="#2A2C34" font-family="sans-serif"> Matrix</text></g></g></svg>