<svg xmlns="http://www.w3.org/2000/svg" width="344.6725158691406" height="466.2247009277344" viewBox="-72.849609375 -101.92300415039062 344.6725158691406 466.2247009277344"><title>Neo4j Graph Visualization</title><desc>Created using Neo4j (http://www.neo4j.com/)</desc><g class="layer relationships"><g class="relationship" transform="translate(133.85446916889572 232.90889608051336) rotate(504.158531168557)"><path class="outline" fill="#A5ABB6" stroke="none" d="M 25 0.5 L 32.24206473962178 0.5 L 32.24206473962178 -0.5 L 25 -0.5 Z M 77.80456473962178 0.5 L 85.04662947924356 0.5 L 85.04662947924356 3.5 L 92.04662947924356 0 L 85.04662947924356 -3.5 L 85.04662947924356 -0.5 L 77.80456473962178 -0.5 Z"/><text text-anchor="middle" pointer-events="none" font-size="8px" fill="#000000" x="55.02331473962178" y="3" transform="rotate(180 55.02331473962178 0)" font-family="sans-serif">ACTED_IN</text></g><g class="relationship" transform="translate(133.85446916889572 232.90889608051336) rotate(427.39827795109665)"><path class="outline" fill="#A5ABB6" stroke="none" d="M 25 0.5 L 29.1741963902531 0.5 L 29.1741963902531 -0.5 L 25 -0.5 Z M 74.7366963902531 0.5 L 78.9108927805062 0.5 L 78.9108927805062 3.5 L 85.9108927805062 0 L 78.9108927805062 -3.5 L 78.9108927805062 -0.5 L 74.7366963902531 -0.5 Z"/><text text-anchor="middle" pointer-events="none" font-size="8px" fill="#000000" x="51.9554463902531" y="3" font-family="sans-serif">ACTED_IN</text></g><g class="relationship" transform="translate(133.85446916889572 232.90889608051336) rotate(261.0547959325506)"><path class="outline" fill="#A5ABB6" stroke="none" d="M 25 0.5 L 27.698958631319684 0.5 L 27.698958631319684 -0.5 L 25 -0.5 Z M 63.034896131319684 0.5 L 65.73385476263937 0.5 L 65.73385476263937 3.5 L 72.73385476263937 0 L 65.73385476263937 -3.5 L 65.73385476263937 -0.5 L 63.034896131319684 -0.5 Z"/><text text-anchor="middle" pointer-events="none" font-size="8px" fill="#000000" x="45.366927381319684" y="3" transform="rotate(180 45.366927381319684 0)" font-family="sans-serif">ACTE…</text></g><g class="relationship" transform="translate(133.85446916889572 232.90889608051336) rotate(286.5132404343489)"><path class="outline" fill="#A5ABB6" stroke="none" d="M 25 0.5 L 39.17221045395911 0.5 L 39.17221045395911 -0.5 L 25 -0.5 Z M 84.73471045395911 0.5 L 98.90692090791822 0.5 L 98.90692090791822 3.5 L 105.90692090791822 0 L 98.90692090791822 -3.5 L 98.90692090791822 -0.5 L 84.73471045395911 -0.5 Z"/><text text-anchor="middle" pointer-events="none" font-size="8px" fill="#000000" x="61.95346045395911" y="3" font-family="sans-serif">ACTED_IN</text></g><g class="relationship" transform="translate(242.82290501273965 174.36207800145684) rotate(197.01573186605037)"><path class="outline" fill="#A5ABB6" stroke="none" d="M 25 0.5 L 38.64338888069851 0.5 L 38.64338888069851 -0.5 L 25 -0.5 Z M 84.20588888069851 0.5 L 97.84927776139702 0.5 L 97.84927776139702 3.5 L 104.84927776139702 0 L 97.84927776139702 -3.5 L 97.84927776139702 -0.5 L 84.20588888069851 -0.5 Z"/><text text-anchor="middle" pointer-events="none" font-size="8px" fill="#000000" x="61.42463888069851" y="3" transform="rotate(180 61.42463888069851 0)" font-family="sans-serif">ACTED_IN</text></g><g class="relationship" transform="translate(242.82290501273965 174.36207800145684) rotate(223.01860449050588)"><path class="outline" fill="#A5ABB6" stroke="none" d="M 25 0.5 L 25.01783318934004 0.5 L 25.01783318934004 -0.5 L 25 -0.5 Z M 66.13111443934004 0.5 L 66.14894762868008 0.5 L 66.14894762868008 3.5 L 73.14894762868008 0 L 66.14894762868008 -3.5 L 66.14894762868008 -0.5 L 66.13111443934004 -0.5 Z"/><text text-anchor="middle" pointer-events="none" font-size="8px" fill="#000000" x="45.57447381434004" y="3" transform="rotate(180 45.57447381434004 0)" font-family="sans-serif">ACTED…</text></g><g class="relationship" transform="translate(235.46329864893943 50.22332706808187) rotate(503.5923738720678)"><path class="outline" fill="#A5ABB6" stroke="none" d="M 25 0.5 L 46.28541134679013 0.5 L 46.28541134679013 -0.5 L 25 -0.5 Z M 91.84791134679013 0.5 L 113.13332269358025 0.5 L 113.13332269358025 3.5 L 120.13332269358025 0 L 113.13332269358025 -3.5 L 113.13332269358025 -0.5 L 91.84791134679013 -0.5 Z"/><text text-anchor="middle" pointer-events="none" font-size="8px" fill="#000000" x="69.06666134679013" y="3" transform="rotate(180 69.06666134679013 0)" font-family="sans-serif">ACTED_IN</text></g><g class="relationship" transform="translate(235.46329864893943 50.22332706808187) rotate(498.39959863338146)"><path class="outline" fill="#A5ABB6" stroke="none" d="M 25 0.5 L 27.003546439369657 0.5 L 27.003546439369657 -0.5 L 25 -0.5 Z M 52.11682768936966 0.5 L 54.120374128739314 0.5 L 54.120374128739314 3.5 L 61.120374128739314 0 L 54.120374128739314 -3.5 L 54.120374128739314 -0.5 L 52.11682768936966 -0.5 Z"/><text text-anchor="middle" pointer-events="none" font-size="8px" fill="#000000" x="39.56018706436966" y="3" transform="rotate(180 39.56018706436966 0)" font-family="sans-serif">AC…</text></g><g class="relationship" transform="translate(69.41940393339632 40.447789891341934) rotate(299.21033040657767)"><path class="outline" fill="#A5ABB6" stroke="none" d="M 25 0.5 L 34.416371258610724 0.5 L 34.416371258610724 -0.5 L 25 -0.5 Z M 79.97887125861072 0.5 L 89.39524251722145 0.5 L 89.39524251722145 3.5 L 96.39524251722145 0 L 89.39524251722145 -3.5 L 89.39524251722145 -0.5 L 79.97887125861072 -0.5 Z"/><text text-anchor="middle" pointer-events="none" font-size="8px" fill="#000000" x="57.197621258610724" y="3" font-family="sans-serif">ACTED_IN</text></g><g class="relationship" transform="translate(69.41940393339632 40.447789891341934) rotate(251.80515033554263)"><path class="outline" fill="#A5ABB6" stroke="none" d="M 25 0.5 L 33.38758022264649 0.5 L 33.38758022264649 -0.5 L 25 -0.5 Z M 78.95008022264649 0.5 L 87.33766044529298 0.5 L 87.33766044529298 3.5 L 94.33766044529298 0 L 87.33766044529298 -3.5 L 87.33766044529298 -0.5 L 78.95008022264649 -0.5 Z"/><text text-anchor="middle" pointer-events="none" font-size="8px" fill="#000000" x="56.16883022264649" y="3" transform="rotate(180 56.16883022264649 0)" font-family="sans-serif">ACTED_IN</text></g><g class="relationship" transform="translate(69.41940393339632 40.447789891341934) rotate(203.37672701799568)"><path class="outline" fill="#A5ABB6" stroke="none" d="M 25 0.5 L 33.926925282346396 0.5 L 33.926925282346396 -0.5 L 25 -0.5 Z M 79.48942528234639 0.5 L 88.41635056469279 0.5 L 88.41635056469279 3.5 L 95.41635056469279 0 L 88.41635056469279 -3.5 L 88.41635056469279 -0.5 L 79.48942528234639 -0.5 Z"/><text text-anchor="middle" pointer-events="none" font-size="8px" fill="#000000" x="56.708175282346396" y="3" transform="rotate(180 56.708175282346396 0)" font-family="sans-serif">ACTED_IN</text></g><g class="relationship" transform="translate(69.41940393339632 40.447789891341934) rotate(517.9477393512981)"><path class="outline" fill="#A5ABB6" stroke="none" d="M 25 0.5 L 34.82357653260255 0.5 L 34.82357653260255 -0.5 L 25 -0.5 Z M 80.38607653260254 0.5 L 90.2096530652051 0.5 L 90.2096530652051 3.5 L 97.2096530652051 0 L 90.2096530652051 -3.5 L 90.2096530652051 -0.5 L 80.38607653260254 -0.5 Z"/><text text-anchor="middle" pointer-events="none" font-size="8px" fill="#000000" x="57.60482653260255" y="3" transform="rotate(180 57.60482653260255 0)" font-family="sans-serif">ACTED_IN</text></g><g class="relationship" transform="translate(69.41940393339632 40.447789891341934) rotate(422.82630297754224)"><path class="outline" fill="#A5ABB6" stroke="none" d="M 25 0.5 L 27.626755480919414 0.5 L 27.626755480919414 -0.5 L 25 -0.5 Z M 73.18925548091941 0.5 L 75.81601096183883 0.5 L 75.81601096183883 3.5 L 82.81601096183883 0 L 75.81601096183883 -3.5 L 75.81601096183883 -0.5 L 73.18925548091941 -0.5 Z"/><text text-anchor="middle" pointer-events="none" font-size="8px" fill="#000000" x="50.408005480919414" y="3" font-family="sans-serif">ACTED_IN</text></g><g class="relationship" transform="translate(69.41940393339632 40.447789891341934) rotate(393.37324768326596)"><path class="outline" fill="#A5ABB6" stroke="none" d="M 25 0.5 L 34.575569327165965 0.5 L 34.575569327165965 -0.5 L 25 -0.5 Z M 80.13806932716597 0.5 L 89.71363865433193 0.5 L 89.71363865433193 3.5 L 96.71363865433193 0 L 89.71363865433193 -3.5 L 89.71363865433193 -0.5 L 80.13806932716597 -0.5 Z"/><text text-anchor="middle" pointer-events="none" font-size="8px" fill="#000000" x="57.356819327165965" y="3" font-family="sans-serif">ACTED_IN</text></g></g><g class="layer nodes"><g class="node" transform="translate(38.97176215802182,301.44491130418965)"><circle class="outline" cx="0" cy="0" r="25" fill="#57C7E3" stroke="#23b3d7" stroke-width="2px"/><text text-anchor="middle" pointer-events="none" font-family="sans-serif" dy="1.5625" font-size="25" fill="#2A2C34"/><text text-anchor="middle" pointer-events="none" font-family="sans-serif" dy="1.5625" font-size="25" fill="#2A2C34"/><text text-anchor="middle" pointer-events="none" x="0" y="0" font-size="10px" fill="#2A2C34" font-family="sans-serif"> Cloud</text><text text-anchor="middle" pointer-events="none" x="0" y="10" font-size="10px" fill="#2A2C34" font-family="sans-serif"> Atlas</text></g><g class="node" transform="translate(133.85446916889572,232.90889608051336)"><circle class="outline" cx="0" cy="0" r="25" fill="#F79767" stroke="#f36924" stroke-width="2px"/><text text-anchor="middle" pointer-events="none" font-family="sans-serif" dy="1.5625" font-size="25" fill="#FFFFFF"/><text text-anchor="middle" pointer-events="none" font-family="sans-serif" dy="1.5625" font-size="25" fill="#FFFFFF"/><text text-anchor="middle" pointer-events="none" x="0" y="0" font-size="10px" fill="#FFFFFF" font-family="sans-serif"> Hugo</text><text text-anchor="middle" pointer-events="none" x="0" y="10" font-size="10px" fill="#FFFFFF" font-family="sans-serif"> Weaving</text></g><g class="node" transform="translate(176.48008397430934,335.30168439995236)"><circle class="outline" cx="0" cy="0" r="25" fill="#57C7E3" stroke="#23b3d7" stroke-width="2px"/><text text-anchor="middle" pointer-events="none" font-family="sans-serif" dy="1.5625" font-size="25" fill="#2A2C34"/><text text-anchor="middle" pointer-events="none" font-family="sans-serif" dy="1.5625" font-size="25" fill="#2A2C34"/><text text-anchor="middle" pointer-events="none" x="0" y="0" font-size="10px" fill="#2A2C34" font-family="sans-serif"> V for</text><text text-anchor="middle" pointer-events="none" x="0" y="10" font-size="10px" fill="#2A2C34" font-family="sans-serif"> Vendetta</text></g><g class="node" transform="translate(118.65785176582216,136.36372951962701)"><circle class="outline" cx="0" cy="0" r="25" fill="#57C7E3" stroke="#23b3d7" stroke-width="2px"/><text text-anchor="middle" pointer-events="none" font-family="sans-serif" dy="1.5625" font-size="25" fill="#2A2C34"/><text text-anchor="middle" pointer-events="none" font-family="sans-serif" dy="1.5625" font-size="25" fill="#2A2C34"/><text text-anchor="middle" pointer-events="none" font-family="sans-serif" dy="1.5625" font-size="25" fill="#2A2C34"/><text text-anchor="middle" pointer-events="none" x="0" y="-5" font-size="10px" fill="#2A2C34" font-family="sans-serif"> The</text><text text-anchor="middle" pointer-events="none" x="0" y="5" font-size="10px" fill="#2A2C34" font-family="sans-serif"> Matrix</text><text text-anchor="middle" pointer-events="none" x="0" y="15" font-size="10px" fill="#2A2C34" font-family="sans-serif"> Revol…</text></g><g class="node" transform="translate(171.06304786259687,107.40135203161324)"><circle class="outline" cx="0" cy="0" r="25" fill="#57C7E3" stroke="#23b3d7" stroke-width="2px"/><text text-anchor="middle" pointer-events="none" font-family="sans-serif" dy="1.5625" font-size="25" fill="#2A2C34"/><text text-anchor="middle" pointer-events="none" font-family="sans-serif" dy="1.5625" font-size="25" fill="#2A2C34"/><text text-anchor="middle" pointer-events="none" font-family="sans-serif" dy="1.5625" font-size="25" fill="#2A2C34"/><text text-anchor="middle" pointer-events="none" x="0" y="-5" font-size="10px" fill="#2A2C34" font-family="sans-serif"> The</text><text text-anchor="middle" pointer-events="none" x="0" y="5" font-size="10px" fill="#2A2C34" font-family="sans-serif"> Matrix</text><text text-anchor="middle" pointer-events="none" x="0" y="15" font-size="10px" fill="#2A2C34" font-family="sans-serif"> Reloa…</text></g><g class="node" transform="translate(242.82290501273965,174.36207800145684)"><circle class="outline" cx="0" cy="0" r="25" fill="#F79767" stroke="#f36924" stroke-width="2px"/><text text-anchor="middle" pointer-events="none" font-family="sans-serif" dy="1.5625" font-size="25" fill="#FFFFFF"/><text text-anchor="middle" pointer-events="none" font-family="sans-serif" dy="1.5625" font-size="25" fill="#FFFFFF"/><text text-anchor="middle" pointer-events="none" x="0" y="0" font-size="10px" fill="#FFFFFF" font-family="sans-serif"> Laurence</text><text text-anchor="middle" pointer-events="none" x="0" y="10" font-size="10px" fill="#FFFFFF" font-family="sans-serif"> Fishbur…</text></g><g class="node" transform="translate(235.46329864893943,50.22332706808187)"><circle class="outline" cx="0" cy="0" r="25" fill="#F79767" stroke="#f36924" stroke-width="2px"/><text text-anchor="middle" pointer-events="none" font-family="sans-serif" dy="1.5625" font-size="25" fill="#FFFFFF"/><text text-anchor="middle" pointer-events="none" x="0" y="5" font-size="10px" fill="#FFFFFF" font-family="sans-serif"> Carrie-A…</text></g><g class="node" transform="translate(128.66235070091446,-65.51011761968823)"><circle class="outline" cx="0" cy="0" r="25" fill="#57C7E3" stroke="#23b3d7" stroke-width="2px"/><text text-anchor="middle" pointer-events="none" font-family="sans-serif" dy="1.5625" font-size="25" fill="#2A2C34"/><text text-anchor="middle" pointer-events="none" x="0" y="5" font-size="10px" fill="#2A2C34" font-family="sans-serif"> Somethi…</text></g><g class="node" transform="translate(69.41940393339632,40.447789891341934)"><circle class="outline" cx="0" cy="0" r="25" fill="#F79767" stroke="#f36924" stroke-width="2px"/><text text-anchor="middle" pointer-events="none" font-family="sans-serif" dy="1.5625" font-size="25" fill="#FFFFFF"/><text text-anchor="middle" pointer-events="none" font-family="sans-serif" dy="1.5625" font-size="25" fill="#FFFFFF"/><text text-anchor="middle" pointer-events="none" x="0" y="0" font-size="10px" fill="#FFFFFF" font-family="sans-serif"> Keanu</text><text text-anchor="middle" pointer-events="none" x="0" y="10" font-size="10px" fill="#FFFFFF" font-family="sans-serif"> Reeves</text></g><g class="node" transform="translate(32.156276268184214,-72.92300227825591)"><circle class="outline" cx="0" cy="0" r="25" fill="#57C7E3" stroke="#23b3d7" stroke-width="2px"/><text text-anchor="middle" pointer-events="none" font-family="sans-serif" dy="1.5625" font-size="25" fill="#2A2C34"/><text text-anchor="middle" pointer-events="none" font-family="sans-serif" dy="1.5625" font-size="25" fill="#2A2C34"/><text text-anchor="middle" pointer-events="none" x="0" y="0" font-size="10px" fill="#2A2C34" font-family="sans-serif"> The</text><text text-anchor="middle" pointer-events="none" x="0" y="10" font-size="10px" fill="#2A2C34" font-family="sans-serif"> Replac…</text></g><g class="node" transform="translate(-41.11267496065237,-7.330416632959334)"><circle class="outline" cx="0" cy="0" r="25" fill="#57C7E3" stroke="#23b3d7" stroke-width="2px"/><text text-anchor="middle" pointer-events="none" font-family="sans-serif" dy="1.5625" font-size="25" fill="#2A2C34"/><text text-anchor="middle" pointer-events="none" font-family="sans-serif" dy="1.5625" font-size="25" fill="#2A2C34"/><text text-anchor="middle" pointer-events="none" x="0" y="0" font-size="10px" fill="#2A2C34" font-family="sans-serif"> Johnny</text><text text-anchor="middle" pointer-events="none" x="0" y="10" font-size="10px" fill="#2A2C34" font-family="sans-serif"> Mnemo…</text></g><g class="node" transform="translate(-43.84960876581125,86.33166575710278)"><circle class="outline" cx="0" cy="0" r="25" fill="#57C7E3" stroke="#23b3d7" stroke-width="2px"/><text text-anchor="middle" pointer-events="none" font-family="sans-serif" dy="1.5625" font-size="25" fill="#2A2C34"/><text text-anchor="middle" pointer-events="none" font-family="sans-serif" dy="1.5625" font-size="25" fill="#2A2C34"/><text text-anchor="middle" pointer-events="none" font-family="sans-serif" dy="1.5625" font-size="25" fill="#2A2C34"/><text text-anchor="middle" pointer-events="none" x="0" y="-5" font-size="10px" fill="#2A2C34" font-family="sans-serif"> The</text><text text-anchor="middle" pointer-events="none" x="0" y="5" font-size="10px" fill="#2A2C34" font-family="sans-serif"> Devil's</text><text text-anchor="middle" pointer-events="none" x="0" y="15" font-size="10px" fill="#2A2C34" font-family="sans-serif"> Advoc…</text></g></g></svg>