<svg xmlns="http://www.w3.org/2000/svg" width="285.55810546875" height="265.73956298828125" viewBox="-31.7799129486084 -40.68239212036133 285.55810546875 265.73956298828125"><title>Neo4j Graph Visualization</title><desc>Created using Neo4j (http://www.neo4j.com/)</desc><g class="layer relationships"><g class="relationship" transform="translate(162.24131879200505 196.05715218787796) rotate(243.7772378417298)"><path class="outline" fill="#A5ABB6" stroke="none" d="M 25 0.5 L 30.742202978678755 0.5 L 30.742202978678755 -0.5 L 25 -0.5 Z M 77.63282797867876 0.5 L 83.37503095735751 0.5 L 83.37503095735751 3.5 L 90.37503095735751 0 L 83.37503095735751 -3.5 L 83.37503095735751 -0.5 L 77.63282797867876 -0.5 Z"/><text text-anchor="middle" pointer-events="none" font-size="8px" fill="#000000" x="54.187515478678755" y="3" transform="rotate(180 54.187515478678755 0)" font-family="sans-serif">DIRECTED</text></g><g class="relationship" transform="translate(224.77820432648952 91.43758681881869) rotate(539.4354237005521)"><path class="outline" fill="#A5ABB6" stroke="none" d="M 25 0.5 L 30.4798852570326 0.5 L 30.4798852570326 -0.5 L 25 -0.5 Z M 76.0423852570326 0.5 L 81.5222705140652 0.5 L 81.5222705140652 3.5 L 88.5222705140652 0 L 81.5222705140652 -3.5 L 81.5222705140652 -0.5 L 76.0423852570326 -0.5 Z"/><text text-anchor="middle" pointer-events="none" font-size="8px" fill="#000000" x="53.2611352570326" y="3" transform="rotate(180 53.2611352570326 0)" font-family="sans-serif">ACTED_IN</text></g><g class="relationship" transform="translate(156.18988900253086 -11.682393028642931) rotate(473.3167917196136)"><path class="outline" fill="#A5ABB6" stroke="none" d="M 25 0.5 L 35.36767798751179 0.5 L 35.36767798751179 -0.5 L 25 -0.5 Z M 71.1411154875118 0.5 L 81.50879347502358 0.5 L 81.50879347502358 3.5 L 88.50879347502358 0 L 81.50879347502358 -3.5 L 81.50879347502358 -0.5 L 71.1411154875118 -0.5 Z"/><text text-anchor="middle" pointer-events="none" font-size="8px" fill="#000000" x="53.25439673751179" y="3" transform="rotate(180 53.25439673751179 0)" font-family="sans-serif">WROTE</text></g><g class="relationship" transform="translate(35.51666163498425 5.555515860081597) rotate(408.9564200685437)"><path class="outline" fill="#A5ABB6" stroke="none" d="M 25 0.5 L 31.395410393275597 0.5 L 31.395410393275597 -0.5 L 25 -0.5 Z M 76.9579103932756 0.5 L 83.3533207865512 0.5 L 83.3533207865512 3.5 L 90.3533207865512 0 L 83.3533207865512 -3.5 L 83.3533207865512 -0.5 L 76.9579103932756 -0.5 Z"/><text text-anchor="middle" pointer-events="none" font-size="8px" fill="#000000" x="54.1766603932756" y="3" font-family="sans-serif">ACTED_IN</text></g><g class="relationship" transform="translate(-2.779913267131666 106.31291210334133) rotate(353.1216858186981)"><path class="outline" fill="#A5ABB6" stroke="none" d="M 25 0.5 L 31.152796842909886 0.5 L 31.152796842909886 -0.5 L 25 -0.5 Z M 76.71529684290988 0.5 L 82.86809368581977 0.5 L 82.86809368581977 3.5 L 89.86809368581977 0 L 82.86809368581977 -3.5 L 82.86809368581977 -0.5 L 76.71529684290988 -0.5 Z"/><text text-anchor="middle" pointer-events="none" font-size="8px" fill="#000000" x="53.934046842909886" y="3" font-family="sans-serif">ACTED_IN</text></g><g class="relationship" transform="translate(54.51046511482748 192.43985040593276) rotate(299.6039725374974)"><path class="outline" fill="#A5ABB6" stroke="none" d="M 25 0.5 L 36.053294233192595 0.5 L 36.053294233192595 -0.5 L 25 -0.5 Z M 71.82673173319259 0.5 L 82.88002596638519 0.5 L 82.88002596638519 3.5 L 89.88002596638519 0 L 82.88002596638519 -3.5 L 82.88002596638519 -0.5 L 71.82673173319259 -0.5 Z"/><text text-anchor="middle" pointer-events="none" font-size="8px" fill="#000000" x="53.940012983192595" y="3" font-family="sans-serif">WROTE</text></g></g><g class="layer nodes"><g class="node" transform="translate(111.26144503029221,92.55618485108914)"><circle class="outline" cx="0" cy="0" r="25" fill="#57C7E3" stroke="#23b3d7" stroke-width="2px"/><text text-anchor="middle" pointer-events="none" font-family="sans-serif" dy="1.5625" font-size="25" fill="#2A2C34"/><text text-anchor="middle" pointer-events="none" font-family="sans-serif" dy="1.5625" font-size="25" fill="#2A2C34"/><text text-anchor="middle" pointer-events="none" font-family="sans-serif" dy="1.5625" font-size="25" fill="#2A2C34"/><text text-anchor="middle" pointer-events="none" x="0" y="-5" font-size="10px" fill="#2A2C34" font-family="sans-serif"> Captain</text><text text-anchor="middle" pointer-events="none" x="0" y="5" font-size="10px" fill="#2A2C34" font-family="sans-serif"> America:</text><text text-anchor="middle" pointer-events="none" x="0" y="15" font-size="10px" fill="#2A2C34" font-family="sans-serif"> The Fi…</text></g><g class="node" transform="translate(162.24131879200505,196.05715218787796)"><circle class="outline" cx="0" cy="0" r="25" fill="#F79767" stroke="#f36924" stroke-width="2px"/><text text-anchor="middle" pointer-events="none" font-family="sans-serif" dy="1.5625" font-size="25" fill="#FFFFFF"/><text text-anchor="middle" pointer-events="none" font-family="sans-serif" dy="1.5625" font-size="25" fill="#FFFFFF"/><text text-anchor="middle" pointer-events="none" x="0" y="0" font-size="10px" fill="#FFFFFF" font-family="sans-serif"> Joe</text><text text-anchor="middle" pointer-events="none" x="0" y="10" font-size="10px" fill="#FFFFFF" font-family="sans-serif"> Johnston</text></g><g class="node" transform="translate(224.77820432648952,91.43758681881869)"><circle class="outline" cx="0" cy="0" r="25" fill="#F79767" stroke="#f36924" stroke-width="2px"/><text text-anchor="middle" pointer-events="none" font-family="sans-serif" dy="1.5625" font-size="25" fill="#FFFFFF"/><text text-anchor="middle" pointer-events="none" font-family="sans-serif" dy="1.5625" font-size="25" fill="#FFFFFF"/><text text-anchor="middle" pointer-events="none" font-family="sans-serif" dy="1.5625" font-size="25" fill="#FFFFFF"/><text text-anchor="middle" pointer-events="none" x="0" y="-5" font-size="10px" fill="#FFFFFF" font-family="sans-serif"> Samuel</text><text text-anchor="middle" pointer-events="none" x="0" y="5" font-size="10px" fill="#FFFFFF" font-family="sans-serif"> L.</text><text text-anchor="middle" pointer-events="none" x="0" y="15" font-size="10px" fill="#FFFFFF" font-family="sans-serif"> Jackson</text></g><g class="node" transform="translate(156.18988900253086,-11.682393028642931)"><circle class="outline" cx="0" cy="0" r="25" fill="#F79767" stroke="#f36924" stroke-width="2px"/><text text-anchor="middle" pointer-events="none" font-family="sans-serif" dy="1.5625" font-size="25" fill="#FFFFFF"/><text text-anchor="middle" pointer-events="none" x="0" y="5" font-size="10px" fill="#FFFFFF" font-family="sans-serif"> Christop…</text></g><g class="node" transform="translate(35.51666163498425,5.555515860081597)"><circle class="outline" cx="0" cy="0" r="25" fill="#F79767" stroke="#f36924" stroke-width="2px"/><text text-anchor="middle" pointer-events="none" font-family="sans-serif" dy="1.5625" font-size="25" fill="#FFFFFF"/><text text-anchor="middle" pointer-events="none" font-family="sans-serif" dy="1.5625" font-size="25" fill="#FFFFFF"/><text text-anchor="middle" pointer-events="none" x="0" y="0" font-size="10px" fill="#FFFFFF" font-family="sans-serif"> Hugo</text><text text-anchor="middle" pointer-events="none" x="0" y="10" font-size="10px" fill="#FFFFFF" font-family="sans-serif"> Weaving</text></g><g class="node" transform="translate(-2.779913267131666,106.31291210334133)"><circle class="outline" cx="0" cy="0" r="25" fill="#F79767" stroke="#f36924" stroke-width="2px"/><text text-anchor="middle" pointer-events="none" font-family="sans-serif" dy="1.5625" font-size="25" fill="#FFFFFF"/><text text-anchor="middle" pointer-events="none" font-family="sans-serif" dy="1.5625" font-size="25" fill="#FFFFFF"/><text text-anchor="middle" pointer-events="none" x="0" y="0" font-size="10px" fill="#FFFFFF" font-family="sans-serif"> Chris</text><text text-anchor="middle" pointer-events="none" x="0" y="10" font-size="10px" fill="#FFFFFF" font-family="sans-serif"> Evans</text></g><g class="node" transform="translate(54.51046511482748,192.43985040593276)"><circle class="outline" cx="0" cy="0" r="25" fill="#F79767" stroke="#f36924" stroke-width="2px"/><text text-anchor="middle" pointer-events="none" font-family="sans-serif" dy="1.5625" font-size="25" fill="#FFFFFF"/><text text-anchor="middle" pointer-events="none" font-family="sans-serif" dy="1.5625" font-size="25" fill="#FFFFFF"/><text text-anchor="middle" pointer-events="none" x="0" y="0" font-size="10px" fill="#FFFFFF" font-family="sans-serif"> Stephen</text><text text-anchor="middle" pointer-events="none" x="0" y="10" font-size="10px" fill="#FFFFFF" font-family="sans-serif"> McFeely</text></g></g></svg>